<?xml version="1.0" encoding="UTF-8"?>
<svg id="Capa_2" data-name="Capa 2" xmlns="http://www.w3.org/2000/svg" viewBox="0 0 983.6 1030.3">
  <defs>
    <style>
      .cls-1, .cls-2, .cls-3, .cls-4, .cls-5, .cls-6, .cls-7, .cls-8, .cls-9 {
        stroke-miterlimit: 10;
      }

      .cls-1, .cls-3, .cls-4, .cls-5, .cls-9 {
        stroke: #093c2f;
        stroke-width: 10px;
      }

      .cls-1, .cls-10 {
        fill: #df9a19;
      }

      .cls-11 {
        letter-spacing: 0em;
      }

      .cls-2 {
        stroke: #b7dccd;
        stroke-width: 40px;
      }

      .cls-2, .cls-5 {
        fill: #b7dccd;
      }

      .cls-12 {
        letter-spacing: 0em;
      }

      .cls-3 {
        fill: #97c1ae;
      }

      .cls-13, .cls-10 {
        font-family: Recoleta-SemiBold, Recoleta;
        font-size: 131.48px;
        font-weight: 600;
      }

      .cls-13, .cls-6 {
        fill: #093c2f;
      }

      .cls-4, .cls-7, .cls-8 {
        fill: none;
      }

      .cls-14 {
        letter-spacing: -.08em;
      }

      .cls-15 {
        letter-spacing: 0em;
      }

      .cls-6, .cls-7 {
        stroke: #1d1d1b;
      }

      .cls-8 {
        stroke: #97c1ae;
        stroke-width: 20px;
      }

      .cls-9 {
        fill: #dce8b7;
      }
    </style>
  </defs>
  <g id="Capa_13" data-name="Capa 13">
    <g>
      <text class="cls-10" transform="translate(0 975.94)"><tspan class="cls-14" x="0" y="0">T</tspan><tspan class="cls-15" x="72.18" y="0">uP</tspan><tspan x="231.4" y="0">laz</tspan><tspan class="cls-12" x="404.43" y="0">a</tspan></text>
      <text class="cls-13" transform="translate(477.02 975.94)"><tspan x="0" y="0">Doce</tspan><tspan class="cls-11" x="307.27" y="0">nt</tspan><tspan x="436.38" y="0">e</tspan></text>
    </g>
  </g>
  <g id="flama_pequeña" data-name="flama pequeña">
    <rect class="cls-6" x="75.16" y=".5" width="852.88" height="846.06" rx="99.81" ry="99.81"/>
    <path class="cls-7" d="M544.89,364.21c-3.09,14.86-21.91,38.61-33.1,51.7-2.32,1.69-4.49,3.02-6.61,3.93-.64.26-1.35.38-2.05.38h-2.17c-.71,0-1.41-.12-2.05-.38-1.18-.49-2.37-1.13-3.58-1.87-10.86-12.54-31.6-38.1-34.88-53.76-4.45-21.38,5.95-43.96,5.95-43.96,0,0,27.68-54.04,35.52-59.68h1.53c7.84,5.64,35.52,59.68,35.52,59.68,0,0,10.39,22.58,5.93,43.96Z"/>
  </g>
  <g id="aro_pequeño" data-name="aro pequeño">
    <circle class="cls-2" cx="501.6" cy="411.59" r="232.94"/>
  </g>
  <g id="aro_grande" data-name="aro grande">
    <circle class="cls-8" cx="501.6" cy="411.59" r="270.52"/>
  </g>
  <g id="cu1">
    <path class="cls-5" d="M501.03,711.77c17.79-1.48,22.41-7.16,22.41-7.16,0,0,18.23-15.51,84.22-32.82,65.99-17.31,137.81-7.7,137.81-7.7l-.51-250.31-243.35-.47h-243.35l-.99,250.31s71.83-9.48,137.79,7.96c65.96,17.44,84.15,32.98,84.15,32.98,0,0,4.61,5.69,22.4,7.2"/>
  </g>
  <g id="cu2">
    <path class="cls-3" d="M501.09,674.84c.08,0,.16-.02.25-.02s.16.02.25.02h-.49Z"/>
    <path class="cls-3" d="M712.33,633.65s-62.06-8.32-119.09,6.64c-57.03,14.96-72.77,28.37-72.77,28.37,0,0-3.94,4.85-19.13,6.16-15.17-1.33-19.1-6.2-19.1-6.2,0,0-15.73-13.44-72.73-28.5-57-15.07-119.09-6.89-119.09-6.89l.87-248.61h175.69c7.87,13.85,20.61,29.35,28.33,38.28,1.22.74,2.4,1.38,3.58,1.87.64.26,1.35.38,2.05.38h2.17c.71,0,1.41-.12,2.05-.38,2.12-.9,4.29-2.24,6.61-3.93,7.77-9.1,19.23-23.34,26.53-36.16l173.59.33.43,248.63Z"/>
  </g>
  <g id="Capa_10" data-name="Capa 10">
    <path class="cls-9" d="M673.02,356.7l-.9,233.26s-117.87,10.5-156.92,68.37c0,0-8.56,7.94-13.71,7.82-5.14.13-13.71-7.84-13.71-7.84-38.95-57.95-156.79-68.67-156.79-68.67l-.49-233.26s79.53-13.1,163.3,63.33c4.47,4.08,11.34,4.09,15.82.01,83.89-76.27,163.4-63.03,163.4-63.03Z"/>
  </g>
  <g id="Capa_12" data-name="Capa 12">
    <line class="cls-4" x1="503.59" y1="427.28" x2="501.66" y2="659.93"/>
  </g>
  <g id="flama_grande" data-name="flama grande">
    <g>
      <path class="cls-1" d="M495.32,422.9c1.22.74,2.4,1.38,3.58,1.87.64.26,1.35.38,2.05.38h2.17c.71,0,1.41-.12,2.05-.38,2.12-.9,4.29-2.24,6.61-3.93"/>
      <path class="cls-1" d="M562.18,373.73c-10.34,11.73-21.63,23.04-33.36,33.18-6.98,5.67-12.33,10.53-17.03,13.94-2.32,1.69-4.49,3.02-6.61,3.93-.64.26-1.35.38-2.05.38h-2.17c-.71,0-1.41-.12-2.05-.38-1.18-.49-2.37-1.13-3.58-1.87-5.46-3.37-11.54-9.07-20.05-15.99-11.73-10.14-23.03-21.45-33.36-33.18-31.1-33.66-38.18-62.68-22.09-105.05,5.34-13.44,13.25-24.64,21.55-36.31,15.83-21.53,37.46-51.85,47.91-79.3,4.08-9.53,9.61-27.25,11.31-33.3.69-2.22.99-2.76,1.27-2.79h.39c.3.08.58.58,1.27,2.79,1.71,6.05,7.23,23.77,11.31,33.3,10.45,27.45,32.08,57.77,47.91,79.3,8.32,11.67,16.2,22.86,21.55,36.31,16.09,42.37,9.01,71.39-22.09,105.05Z"/>
    </g>
  </g>
  <g id="Capa_5" data-name="Capa 5">
    <path class="cls-5" d="M544.89,369.15c-.94,4.54-3.35,9.91-6.57,15.55-7.3,12.82-18.75,27.05-26.53,36.16-2.32,1.69-4.49,3.02-6.61,3.93-.64.26-1.35.38-2.05.38h-2.17c-.71,0-1.41-.12-2.05-.38-1.18-.49-2.37-1.13-3.58-1.87-7.72-8.92-20.46-24.42-28.33-38.28-3.19-5.62-5.59-10.96-6.54-15.48-4.45-21.38,5.95-43.96,5.95-43.96,0,0,31.39-65.56,36.27-73.58l36.29,73.58s10.39,22.58,5.93,43.96Z"/>
  </g>
</svg>